<svg width="125" height="195" viewBox="0 0 125 195" fill="none" xmlns="http://www.w3.org/2000/svg">
<path d="M18.0046 0.180176C16.8503 0.180176 15.788 0.808623 15.2283 1.81986L0.235107 28.8002H52.1834L83.4182 0.180176H18.0046ZM88.6913 3.97506L58.4502 31.6883L122.945 72.7301L124.162 71.9538L88.6913 3.97506ZM6.56405 35.1602L35.0785 44.4766L45.2458 35.1602H6.56405ZM56.1646 37.775V51.3645L100.064 65.7118L56.1646 37.775ZM49.8046 39.6134L42.0223 46.7436L49.8046 49.2901V39.6134ZM36.6436 51.6751L9.55151 76.5002L36.6436 101.325L49.8046 97.0211V55.9792L36.6436 51.6751ZM56.1646 58.0537V94.9467L112.622 76.5002L56.1646 58.0537ZM122.945 80.2702L58.4502 121.312L88.6913 149.025L124.162 81.0466L122.945 80.2702ZM100.064 87.2886L56.1646 101.636V115.225L100.064 87.2886ZM49.8046 103.71L42.0223 106.257L49.8046 113.387V103.71ZM35.0785 108.524L6.56405 117.84H45.2458L35.0785 108.524ZM0.235107 124.2L15.2283 151.18C15.788 152.192 16.8503 152.82 18.0046 152.82H83.4182L52.1834 124.2H0.235107Z" fill="#611F69"/>
<path d="M28.0165 169H34.6371L36.7943 177.307L37.4969 180.596H37.6126L38.3151 177.307L40.3484 169H46.9689V194.465H41.5634V188.473C41.5634 187.713 41.5965 186.754 41.6626 185.597C41.7287 184.431 41.8031 183.233 41.8775 181.993C41.9519 180.753 42.0511 179.555 42.1503 178.406C42.2577 177.257 42.3486 176.307 42.423 175.546H42.3073L40.1914 183.109L38.8607 187.696H35.9595L34.6288 183.109L32.6286 175.546H32.4716C32.5459 176.307 32.6451 177.257 32.7443 178.406C32.8518 179.555 32.9427 180.753 33.0171 181.993C33.0915 183.233 33.1658 184.44 33.232 185.597C33.2981 186.762 33.3311 187.721 33.3311 188.473V194.465H28L28.0165 169ZM68.839 189.06H61.8631L60.6067 194.465H53.7135L61.392 169H69.5416L77.2201 194.465H70.0871L68.839 189.06ZM67.624 183.845L67.2356 182.084C66.9463 180.852 66.6487 179.522 66.3346 178.092C66.0205 176.654 65.7065 175.298 65.3924 174.017H65.2353C64.946 175.323 64.6568 176.687 64.3509 178.108C64.0534 179.53 63.7558 180.861 63.4666 182.084L63.0781 183.845H67.624ZM89.2048 181.381L82.2702 169H89.7917L91.8249 173.149C92.1142 173.753 92.4118 174.397 92.7258 175.092C93.0399 175.786 93.3788 176.546 93.7425 177.381H93.8995C94.1888 176.546 94.4698 175.778 94.7591 175.092C95.0484 174.397 95.3212 173.753 95.5857 173.149L97.3875 169H104.595L97.6602 181.696L105.025 194.465H97.5032L95.1558 189.92C94.7922 189.242 94.4533 188.564 94.1557 187.886C93.8582 187.209 93.5358 186.473 93.197 185.696H93.0399C92.7506 186.481 92.4614 187.209 92.1555 187.886C91.858 188.564 91.5522 189.242 91.2381 189.92L89.0478 194.465H81.8404L89.2048 181.381Z" fill="#611F69"/>
</svg>
