<svg width="240" height="240" viewBox="0 0 240 240" fill="none" xmlns="http://www.w3.org/2000/svg">
<g clip-path="url(#clip0_108_211)">
<path d="M120 240C186.274 240 240 186.274 240 120C240 53.7258 186.274 0 120 0C53.7258 0 0 53.7258 0 120C0 186.274 53.7258 240 120 240Z" fill="#7D2AE7"/>
<path d="M120 240C186.274 240 240 186.274 240 120C240 53.7258 186.274 0 120 0C53.7258 0 0 53.7258 0 120C0 186.274 53.7258 240 120 240Z" fill="url(#paint0_radial_108_211)"/>
<path d="M120 240C186.274 240 240 186.274 240 120C240 53.7258 186.274 0 120 0C53.7258 0 0 53.7258 0 120C0 186.274 53.7258 240 120 240Z" fill="url(#paint1_radial_108_211)"/>
<path d="M120 240C186.274 240 240 186.274 240 120C240 53.7258 186.274 0 120 0C53.7258 0 0 53.7258 0 120C0 186.274 53.7258 240 120 240Z" fill="url(#paint2_radial_108_211)"/>
<path d="M120 240C186.274 240 240 186.274 240 120C240 53.7258 186.274 0 120 0C53.7258 0 0 53.7258 0 120C0 186.274 53.7258 240 120 240Z" fill="#611F69"/>
<path d="M171.807 144.616C170.817 144.616 169.945 145.452 169.038 147.279C158.797 168.047 141.107 182.741 120.637 182.741C96.9684 182.741 82.3108 161.375 82.3108 131.857C82.3108 81.8569 110.169 52.9479 134.639 52.9479C146.073 52.9479 153.056 60.1334 153.056 71.5681C153.056 85.1394 145.345 92.3249 145.345 97.1112C145.345 99.2597 146.682 100.561 149.332 100.561C159.979 100.561 172.475 88.3263 172.475 71.0429C172.475 54.2847 157.89 41.9668 133.421 41.9668C92.9817 41.9668 57.0423 79.4578 57.0423 131.332C57.0423 171.485 79.9714 198.019 115.35 198.019C152.9 198.019 174.613 160.658 174.613 148.532C174.613 145.847 173.24 144.616 171.807 144.616Z" fill="white"/>
</g>
<defs>
<radialGradient id="paint0_radial_108_211" cx="0" cy="0" r="1" gradientUnits="userSpaceOnUse" gradientTransform="translate(46.359 212.717) rotate(-49.416) scale(185.62)">
<stop stop-color="#6420FF"/>
<stop offset="1" stop-color="#6420FF" stop-opacity="0"/>
</radialGradient>
<radialGradient id="paint1_radial_108_211" cx="0" cy="0" r="1" gradientUnits="userSpaceOnUse" gradientTransform="translate(63.5364 27.2837) rotate(54.703) scale(209.32)">
<stop stop-color="#611F69"/>
<stop offset="1" stop-color="#00C4CC" stop-opacity="0"/>
</radialGradient>
<radialGradient id="paint2_radial_108_211" cx="0" cy="0" r="1" gradientUnits="userSpaceOnUse" gradientTransform="translate(46.3579 212.716) rotate(-45.1954) scale(183.373 84.3355)">
<stop stop-color="#611F69"/>
<stop offset="1" stop-color="#6420FF" stop-opacity="0"/>
</radialGradient>
<clipPath id="clip0_108_211">
<rect width="240" height="240" fill="white"/>
</clipPath>
</defs>
</svg>
