<svg width="240" height="234" viewBox="0 0 240 234" fill="none" xmlns="http://www.w3.org/2000/svg">
<g clip-path="url(#clip0_120_291)">
<path d="M42.5 1.88608e-05H197.5C203.083 -0.00524284 208.612 1.09046 213.77 3.22442C218.929 5.35838 223.616 8.48871 227.564 12.4362C231.511 16.3838 234.642 21.071 236.776 26.2297C238.91 31.3885 240.005 36.9174 240 42.5V191.5C240.005 197.083 238.91 202.612 236.776 207.77C234.642 212.929 231.511 217.616 227.564 221.564C223.616 225.511 218.929 228.642 213.77 230.776C208.612 232.91 203.083 234.005 197.5 234H42.5C36.9174 234.005 31.3885 232.91 26.2297 230.776C21.071 228.642 16.3838 225.511 12.4362 221.564C8.48871 217.616 5.35838 212.929 3.22442 207.77C1.09046 202.612 -0.00524284 197.083 1.88608e-05 191.5V42.5C-0.00524284 36.9174 1.09046 31.3885 3.22442 26.2297C5.35838 21.071 8.48871 16.3838 12.4362 12.4362C16.3838 8.48871 21.071 5.35838 26.2297 3.22442C31.3885 1.09046 36.9174 -0.00524284 42.5 1.88608e-05V1.88608e-05Z" fill="#611F69"/>
<path d="M54 164.1V61.2C54 60.5 54.3 60.1 55 60.1C56.7 60.1 58.3 60.1 60.6 60C62.9 59.9 65.5 59.9 68.2 59.8C70.9 59.7 73.8 59.7 76.9 59.6C80 59.5 83 59.5 86 59.5C94.2 59.5 101 60.5 106.6 62.6C111.62 64.3048 116.197 67.1059 120 70.8C123.222 74.0328 125.712 77.9207 127.3 82.2C128.814 86.3674 129.592 90.7662 129.6 95.2C129.6 103.8 127.6 110.9 123.6 116.5C119.581 122.092 113.971 126.344 107.5 128.7C100.7 131.2 93.2 132.1 85 132.1C82.6 132.1 81 132.1 80 132C79 131.9 77.6 131.9 75.7 131.9V164C75.7223 164.165 75.7114 164.332 75.6678 164.492C75.6242 164.652 75.5489 164.802 75.4463 164.933C75.3437 165.063 75.2159 165.172 75.0705 165.252C74.9252 165.333 74.7652 165.383 74.6 165.4H55.2C54.4 165.4 54 165 54 164.1ZM75.8 79.4V113C77.2 113.1 78.5 113.2 79.7 113.2H85C88.9038 113.205 92.7843 112.597 96.5 111.4C99.6879 110.463 102.536 108.622 104.7 106.1C106.8 103.6 107.8 100.2 107.8 95.8C107.894 92.6751 107.096 89.588 105.5 86.9C103.833 84.3036 101.38 82.3068 98.5 81.2C94.7459 79.7297 90.729 79.0488 86.7 79.2C84.1 79.2 81.8 79.2 79.9 79.3C78.5331 79.2106 77.1609 79.2441 75.8 79.4V79.4Z" fill="white"/>
</g>
<path d="M146.011 89.4152H163.511C163.985 89.4266 164.443 89.5875 164.821 89.8748C165.198 90.1622 165.474 90.5613 165.611 91.0152C166.025 91.7227 166.296 92.5039 166.411 93.3152C166.611 94.3152 166.811 95.4152 166.911 96.4152C167.011 97.4152 167.111 98.7152 167.111 100.015C170.114 96.5099 173.742 93.5937 177.811 91.4152C182.38 88.9387 187.516 87.6978 192.711 87.8152C192.876 87.7929 193.043 87.8038 193.203 87.8474C193.364 87.891 193.513 87.9663 193.644 88.0689C193.775 88.1715 193.883 88.2993 193.964 88.4447C194.044 88.59 194.094 88.7501 194.111 88.9152V108.815C194.111 109.615 193.611 109.915 192.511 109.915C186.03 109.527 179.551 110.693 173.611 113.315C171.586 114.182 169.751 115.439 168.211 117.015V168.015C168.211 169.015 167.811 169.415 166.911 169.415H147.411C147.227 169.446 147.038 169.44 146.856 169.395C146.674 169.351 146.504 169.271 146.354 169.158C146.204 169.046 146.079 168.905 145.986 168.743C145.892 168.58 145.833 168.401 145.811 168.215V112.415C145.811 110.015 145.811 107.515 145.711 104.915C145.611 102.315 145.611 99.7152 145.511 97.1152C145.411 94.9152 145.211 92.7152 144.911 90.5152C144.885 90.397 144.882 90.2747 144.903 90.1554C144.923 90.036 144.968 89.922 145.033 89.8198C145.098 89.7176 145.182 89.6292 145.282 89.5598C145.381 89.4904 145.493 89.4412 145.611 89.4152C145.711 89.3152 145.811 89.3152 146.011 89.4152V89.4152Z" fill="white"/>
<defs>
<clipPath id="clip0_120_291">
<rect width="240" height="234" rx="12" fill="white"/>
</clipPath>
</defs>
</svg>
