<svg width="14" height="14" viewBox="0 0 14 14" fill="none" xmlns="http://www.w3.org/2000/svg">
<g clip-path="url(#clip0_1602_20)">
<path fill-rule="evenodd" clip-rule="evenodd" d="M1.17563 6.08064L3.47031 5.46578C3.47266 5.45079 3.47557 5.43577 3.47906 5.42076L4.24829 2.10607L5.61642 1.73948L5.61337 1.75333L4.8368 5.09963L7.71041 4.32965L7.71315 4.31761L8.50957 0.96426L9.88157 0.596633L9.87932 0.60645L9.08237 3.96204L12.9702 2.92031L12.4412 0.94605C12.2982 0.412584 11.7499 0.0960007 11.2164 0.238943L1.35373 2.88164C0.820268 3.02458 0.503685 3.57292 0.646627 4.10638L1.17563 6.08064ZM1.177 6.08066H13.3876V12.7954C13.3876 13.3476 12.9399 13.7954 12.3876 13.7954H2.177C1.62472 13.7954 1.177 13.3476 1.177 12.7954V6.08066ZM3.35107 11.0838C3.35107 10.7387 3.6309 10.4588 3.97607 10.4588H5.34058C5.68576 10.4588 5.96558 10.7387 5.96558 11.0838C5.96558 11.429 5.68576 11.7088 5.34058 11.7088H3.97607C3.6309 11.7088 3.35107 11.429 3.35107 11.0838Z" fill="#FCBD8A"/>
</g>
<defs>
<clipPath id="clip0_1602_20">
<rect width="14" height="14" fill="white"/>
</clipPath>
</defs>
</svg>
