<svg width="477" height="142" viewBox="0 0 477 142" fill="none" xmlns="http://www.w3.org/2000/svg">
<path d="M150.864 113.563H151.97C151.97 114.82 152.321 115.872 153.022 116.718C153.735 117.552 154.648 118.181 155.76 118.604C156.884 119.027 158.069 119.238 159.314 119.238C160.535 119.238 161.665 119.051 162.704 118.676C163.756 118.302 164.602 117.733 165.243 116.972C165.884 116.198 166.204 115.219 166.204 114.034C166.204 112.838 165.865 111.895 165.189 111.206C164.512 110.517 163.635 109.967 162.559 109.556C161.483 109.133 160.347 108.746 159.15 108.395C158.195 108.117 157.259 107.815 156.34 107.489C155.421 107.162 154.587 106.763 153.838 106.292C153.088 105.808 152.49 105.204 152.043 104.479C151.607 103.753 151.39 102.853 151.39 101.777C151.39 100.532 151.716 99.456 152.369 98.5494C153.022 97.6307 153.91 96.9235 155.034 96.4279C156.159 95.9323 157.428 95.6844 158.842 95.6844C160.232 95.6844 161.526 95.9564 162.723 96.5004C163.931 97.0444 164.904 97.812 165.642 98.8032C166.391 99.7824 166.766 100.943 166.766 102.285H165.678C165.678 101.088 165.358 100.066 164.717 99.2203C164.076 98.3741 163.236 97.7274 162.197 97.2801C161.157 96.8207 160.039 96.5911 158.842 96.5911C157.658 96.5911 156.582 96.7905 155.615 97.1894C154.66 97.5883 153.898 98.1686 153.33 98.9301C152.774 99.6917 152.496 100.616 152.496 101.704C152.496 102.865 152.834 103.796 153.511 104.497C154.2 105.186 155.083 105.748 156.159 106.183C157.234 106.618 158.377 107.023 159.586 107.398C160.541 107.688 161.471 108.002 162.378 108.341C163.297 108.679 164.125 109.09 164.862 109.574C165.612 110.045 166.204 110.638 166.639 111.351C167.086 112.052 167.31 112.922 167.31 113.962C167.31 114.977 167.098 115.878 166.675 116.664C166.264 117.437 165.69 118.084 164.953 118.604C164.215 119.124 163.363 119.516 162.396 119.782C161.429 120.048 160.402 120.181 159.314 120.181C157.887 120.181 156.527 119.934 155.234 119.438C153.952 118.93 152.901 118.187 152.079 117.208C151.269 116.228 150.864 115.014 150.864 113.563ZM191.263 120H190.175V96.8268H181V95.8658H200.438V96.8268H191.263V120ZM231.571 95.8658H232.677V111.695C232.677 114.391 231.873 116.482 230.266 117.969C228.67 119.456 226.555 120.199 223.919 120.199C221.296 120.199 219.187 119.456 217.591 117.969C215.996 116.482 215.198 114.391 215.198 111.695V95.8658H216.286V111.695C216.286 114.125 216.987 115.999 218.389 117.316C219.803 118.634 221.647 119.293 223.919 119.293C226.192 119.293 228.035 118.634 229.45 117.316C230.864 115.999 231.571 114.125 231.571 111.695V95.8658ZM266.44 107.942C266.44 109.719 266.21 111.345 265.751 112.82C265.304 114.294 264.633 115.57 263.738 116.646C262.844 117.721 261.738 118.549 260.42 119.13C259.114 119.71 257.609 120 255.905 120H249.268V95.8658H255.905C257.609 95.8658 259.114 96.1619 260.42 96.7543C261.738 97.3345 262.844 98.1625 263.738 99.2384C264.633 100.302 265.304 101.577 265.751 103.064C266.21 104.539 266.44 106.165 266.44 107.942ZM265.334 107.942C265.334 105.875 264.995 104.001 264.318 102.321C263.641 100.641 262.608 99.3049 261.218 98.3136C259.828 97.3224 258.057 96.8268 255.905 96.8268H250.338V119.057H255.905C258.057 119.057 259.828 118.561 261.218 117.57C262.608 116.567 263.641 115.225 264.318 113.545C264.995 111.865 265.334 109.997 265.334 107.942ZM284.645 120H283.557V95.8658H284.645V120ZM312.714 95.6663C314.442 95.6663 315.959 95.9685 317.265 96.5729C318.571 97.1653 319.658 98.0114 320.529 99.1115C321.399 100.212 322.052 101.511 322.487 103.01C322.934 104.497 323.158 106.141 323.158 107.942C323.158 109.731 322.934 111.375 322.487 112.874C322.052 114.373 321.399 115.672 320.529 116.772C319.658 117.86 318.571 118.707 317.265 119.311C315.959 119.903 314.442 120.199 312.714 120.199C310.985 120.199 309.468 119.903 308.163 119.311C306.857 118.707 305.769 117.86 304.899 116.772C304.028 115.672 303.37 114.373 302.922 112.874C302.487 111.375 302.269 109.731 302.269 107.942C302.269 106.141 302.487 104.497 302.922 103.01C303.37 101.511 304.028 100.212 304.899 99.1115C305.769 98.0114 306.857 97.1653 308.163 96.5729C309.468 95.9685 310.985 95.6663 312.714 95.6663ZM312.714 96.6273C310.514 96.6273 308.725 97.1411 307.347 98.1686C305.968 99.184 304.953 100.55 304.3 102.267C303.66 103.971 303.339 105.863 303.339 107.942C303.339 110.021 303.66 111.919 304.3 113.636C304.953 115.34 305.968 116.706 307.347 117.733C308.725 118.749 310.514 119.257 312.714 119.257C314.914 119.257 316.703 118.749 318.081 117.733C319.459 116.706 320.468 115.34 321.109 113.636C321.762 111.919 322.088 110.021 322.088 107.942C322.088 105.863 321.762 103.971 321.109 102.267C320.468 100.55 319.459 99.184 318.081 98.1686C316.703 97.1411 314.914 96.6273 312.714 96.6273Z" fill="#4A4A4A"/>
<path d="M20.196 80.952C17.612 80.952 15.232 80.5213 13.056 79.66C10.9253 78.7533 8.95333 77.6653 7.14 76.396L6.256 80.408H5.168L3.808 65.108L4.964 64.904C5.508 67.352 6.30133 69.5053 7.344 71.364C8.432 73.2227 9.656 74.764 11.016 75.988C12.376 77.212 13.8267 78.1187 15.368 78.708C16.9093 79.2973 18.4507 79.592 19.992 79.592C22.2133 79.592 24.072 79.184 25.568 78.368C27.1093 77.552 28.288 76.4187 29.104 74.968C29.92 73.5173 30.328 71.8853 30.328 70.072C30.328 67.76 29.8973 65.8107 29.036 64.224C28.22 62.6373 26.9733 61.3 25.296 60.212C23.6187 59.124 21.4653 58.172 18.836 57.356C16.252 56.54 14.076 55.6333 12.308 54.636C10.54 53.6387 9.112 52.5507 8.024 51.372C6.936 50.148 6.14267 48.8333 5.644 47.428C5.14533 45.9773 4.896 44.3907 4.896 42.668C4.896 41.0813 5.14533 39.6307 5.644 38.316C6.14267 36.956 6.82267 35.7547 7.684 34.712C8.59067 33.624 9.67867 32.6947 10.948 31.924C12.2173 31.1533 13.6227 30.564 15.164 30.156C16.7053 29.748 18.3373 29.544 20.06 29.544C22.1907 29.544 24.208 29.9747 26.112 30.836C28.0613 31.652 29.6707 32.604 30.94 33.692L31.824 29.544H32.912L34.544 44.844L33.32 45.048C32.64 41.8293 31.6653 39.1773 30.396 37.092C29.172 34.9613 27.6987 33.3747 25.976 32.332C24.2987 31.2893 22.3947 30.768 20.264 30.768C17.2267 30.768 14.892 31.6747 13.26 33.488C11.6733 35.256 10.88 37.4093 10.88 39.948C10.88 41.852 11.2653 43.4613 12.036 44.776C12.8067 46.0907 14.008 47.224 15.64 48.176C17.272 49.128 19.4027 50.0573 22.032 50.964C24.5253 51.8253 26.6787 52.7547 28.492 53.752C30.3053 54.7493 31.7787 55.86 32.912 57.084C34.0907 58.2627 34.952 59.5773 35.496 61.028C36.04 62.4333 36.312 64.02 36.312 65.788C36.312 67.9187 35.904 69.9133 35.088 71.772C34.272 73.5853 33.116 75.1947 31.62 76.6C30.124 77.96 28.4013 79.0253 26.452 79.796C24.5027 80.5667 22.4173 80.952 20.196 80.952ZM51.6837 80V78.98L56.5117 78.708C57.4184 78.6627 58.0077 78.368 58.2797 77.824C58.5971 77.28 58.7557 76.4413 58.7557 75.308V31.788H54.4037C52.8171 31.788 51.4344 32.0147 50.2557 32.468C49.1224 32.9213 48.1024 33.624 47.1957 34.576C46.2891 35.528 45.4504 36.7973 44.6797 38.384C43.9544 39.9707 43.2064 41.9427 42.4357 44.3L41.2797 43.96L43.2517 30.496H81.0597L82.8957 43.96L81.6717 44.3C80.9464 41.9427 80.1984 39.9707 79.4277 38.384C78.7024 36.7973 77.8864 35.528 76.9797 34.576C76.1184 33.624 75.0984 32.9213 73.9197 32.468C72.7864 32.0147 71.4491 31.788 69.9077 31.788H65.4877V75.58C65.4877 76.7133 65.6237 77.5067 65.8957 77.96C66.2131 78.368 66.8477 78.6173 67.7997 78.708L72.5597 78.98V80H51.6837ZM97.384 80V78.98L101.328 78.708C102.189 78.6173 102.756 78.3453 103.028 77.892C103.3 77.3933 103.436 76.5093 103.436 75.24V57.628L90.72 35.664C90.04 34.44 89.428 33.5787 88.884 33.08C88.34 32.536 87.592 32.1733 86.64 31.992L84.124 31.516V30.496H103.096V31.516L99.356 31.992C98.3133 32.128 97.7013 32.4907 97.52 33.08C97.3386 33.6693 97.52 34.44 98.064 35.392L109.42 55.112H109.76L120.776 35.664C121.32 34.6667 121.524 33.896 121.388 33.352C121.252 32.7627 120.663 32.3773 119.62 32.196L115.336 31.448V30.496H129.82V31.516L126.488 32.06C125.763 32.1507 125.151 32.4227 124.652 32.876C124.199 33.284 123.519 34.2587 122.612 35.8L110.168 57.628V75.512C110.168 76.6453 110.304 77.4387 110.576 77.892C110.893 78.3453 111.483 78.6173 112.344 78.708L116.22 78.98V80H97.384ZM132.043 80V78.98L135.987 78.708C136.849 78.6173 137.415 78.3453 137.687 77.892C137.959 77.3933 138.095 76.5093 138.095 75.24V34.916C138.095 33.7827 137.937 32.9893 137.619 32.536C137.347 32.0373 136.758 31.7653 135.851 31.72L132.043 31.516V30.496H151.491V31.516L147.003 31.72C146.233 31.8107 145.666 32.06 145.303 32.468C144.986 32.8307 144.827 33.6467 144.827 34.916V78.708H153.123C154.755 78.708 156.161 78.5493 157.339 78.232C158.518 77.9147 159.515 77.3253 160.331 76.464C161.193 75.6027 161.963 74.4013 162.643 72.86C163.369 71.2733 164.071 69.2107 164.751 66.672H165.839L164.139 80H132.043ZM172.352 80V78.98L176.296 78.708C177.157 78.6173 177.724 78.3453 177.996 77.892C178.268 77.3933 178.404 76.5093 178.404 75.24V34.916C178.404 33.7827 178.245 32.9893 177.928 32.536C177.656 32.0373 177.067 31.7653 176.16 31.72L172.352 31.516V30.496H202.952L204.924 41.58L203.836 41.852C203.156 39.9027 202.476 38.2707 201.796 36.956C201.116 35.6413 200.345 34.6213 199.484 33.896C198.623 33.1253 197.58 32.5813 196.356 32.264C195.132 31.9467 193.613 31.788 191.8 31.788H185.136V54.024H191.596C193.092 54.024 194.225 53.888 194.996 53.616C195.812 53.2987 196.424 52.6867 196.832 51.78C197.285 50.828 197.739 49.468 198.192 47.7L199.348 47.496V61.504L198.192 61.64C197.829 59.872 197.421 58.5573 196.968 57.696C196.56 56.7893 195.948 56.1773 195.132 55.86C194.316 55.4973 193.137 55.316 191.596 55.316H185.136V78.708H193.772C195.449 78.708 196.855 78.5493 197.988 78.232C199.121 77.9147 200.073 77.3707 200.844 76.6C201.66 75.8293 202.385 74.764 203.02 73.404C203.655 72.044 204.267 70.2987 204.856 68.168H205.944L204.856 80H172.352ZM251.969 80V78.98L255.981 78.708C256.842 78.6173 257.409 78.3453 257.681 77.892C257.953 77.3933 258.089 76.5093 258.089 75.24V34.916C258.089 33.7827 257.93 32.9893 257.613 32.536C257.341 32.0373 256.752 31.7653 255.845 31.72L251.969 31.516V30.496H270.873V31.516L266.861 31.72C266.09 31.7653 265.546 32.0373 265.229 32.536C264.957 32.9893 264.821 33.8733 264.821 35.188V75.512C264.821 76.6453 264.957 77.4387 265.229 77.892C265.546 78.3453 266.136 78.6173 266.997 78.708L270.873 78.98V80H251.969ZM278.522 80V78.98L282.738 78.368C283.554 78.232 284.098 77.9373 284.37 77.484C284.642 76.9853 284.801 76.124 284.846 74.9L287.226 35.324C287.317 34.1453 287.203 33.352 286.886 32.944C286.569 32.536 285.957 32.264 285.05 32.128L280.63 31.516V30.496H294.978L308.714 66.876L308.782 66.808L322.314 30.496H336.118V31.516L331.834 32.128C331.245 32.2187 330.723 32.4453 330.27 32.808C329.862 33.1707 329.703 34.1 329.794 35.596L332.242 75.24C332.287 76.3733 332.446 77.1667 332.718 77.62C332.99 78.028 333.557 78.3 334.418 78.436L338.43 79.048V80H319.186V78.98L323.402 78.368C324.263 78.232 324.853 77.9373 325.17 77.484C325.487 77.0307 325.601 76.1693 325.51 74.9L323.13 33.556H323.062L308.646 72.316H304.294L289.198 33.556H289.13L286.682 75.24C286.637 76.3733 286.75 77.1667 287.022 77.62C287.294 78.028 287.906 78.3 288.858 78.436L293.006 79.048V80H278.522ZM342.056 80V78.98L344.708 78.504C345.479 78.3227 346.068 78.0053 346.476 77.552C346.93 77.0533 347.383 76.124 347.836 74.764L362.456 30.496H367.216L381.768 74.968C382.131 76.1013 382.471 76.9173 382.788 77.416C383.151 77.8693 383.808 78.1867 384.76 78.368L387.208 78.844V80H369.596V78.98L373.268 78.504C374.084 78.4133 374.583 78.1187 374.764 77.62C374.946 77.1213 374.878 76.328 374.56 75.24L371.024 63.204H353.616L349.876 74.832C349.559 75.8747 349.491 76.736 349.672 77.416C349.854 78.096 350.443 78.4813 351.44 78.572L355.52 79.048V80H342.056ZM354.16 61.776H370.48L362.456 35.936H362.32L354.16 61.776ZM411.101 80.952C406.795 80.952 403.055 79.9547 399.881 77.96C396.708 75.9653 394.237 73.0867 392.469 69.324C390.747 65.5613 389.885 60.9827 389.885 55.588C389.885 52.0067 390.429 48.652 391.517 45.524C392.605 42.396 394.147 39.6533 396.141 37.296C398.136 34.8933 400.493 33.012 403.213 31.652C405.933 30.2467 408.903 29.544 412.121 29.544C415.113 29.544 417.629 30.1333 419.669 31.312C421.755 32.4907 423.5 33.7827 424.905 35.188L425.585 29.408H426.673L429.733 45.252L428.509 45.524C427.421 42.668 426.061 40.1293 424.429 37.908C422.843 35.6867 421.007 33.9413 418.921 32.672C416.836 31.4027 414.569 30.768 412.121 30.768C409.809 30.768 407.724 31.3347 405.865 32.468C404.007 33.6013 402.42 35.256 401.105 37.432C399.836 39.5627 398.861 42.1693 398.181 45.252C397.501 48.2893 397.161 51.6893 397.161 55.452C397.161 58.7613 397.524 61.8667 398.249 64.768C398.975 67.624 399.995 70.14 401.309 72.316C402.624 74.492 404.211 76.192 406.069 77.416C407.928 78.5947 409.968 79.184 412.189 79.184C413.731 79.184 415.181 79.0253 416.541 78.708C417.901 78.3907 419.148 77.9147 420.281 77.28C421.46 76.6 422.435 75.784 423.205 74.832V61.708C423.205 60.5747 423.047 59.7813 422.729 59.328C422.457 58.8293 421.868 58.5573 420.961 58.512L416.881 58.308V57.288H435.309V58.308L431.705 58.512C430.935 58.5573 430.391 58.8293 430.073 59.328C429.801 59.8267 429.665 60.7107 429.665 61.98V80.204H428.645L423.885 75.716C422.888 76.804 421.777 77.7333 420.553 78.504C419.375 79.2747 418.015 79.864 416.473 80.272C414.977 80.7253 413.187 80.952 411.101 80.952ZM439.766 80V78.98L443.71 78.708C444.571 78.6173 445.138 78.3453 445.41 77.892C445.682 77.3933 445.818 76.5093 445.818 75.24V34.916C445.818 33.7827 445.659 32.9893 445.342 32.536C445.07 32.0373 444.481 31.7653 443.574 31.72L439.766 31.516V30.496H470.366L472.338 41.58L471.25 41.852C470.57 39.9027 469.89 38.2707 469.21 36.956C468.53 35.6413 467.759 34.6213 466.898 33.896C466.037 33.1253 464.994 32.5813 463.77 32.264C462.546 31.9467 461.027 31.788 459.214 31.788H452.55V54.024H459.01C460.506 54.024 461.639 53.888 462.41 53.616C463.226 53.2987 463.838 52.6867 464.246 51.78C464.699 50.828 465.153 49.468 465.606 47.7L466.762 47.496V61.504L465.606 61.64C465.243 59.872 464.835 58.5573 464.382 57.696C463.974 56.7893 463.362 56.1773 462.546 55.86C461.73 55.4973 460.551 55.316 459.01 55.316H452.55V78.708H461.186C462.863 78.708 464.269 78.5493 465.402 78.232C466.535 77.9147 467.487 77.3707 468.258 76.6C469.074 75.8293 469.799 74.764 470.434 73.404C471.069 72.044 471.681 70.2987 472.27 68.168H473.358L472.27 80H439.766Z" fill="#4A4A4A"/>
<path d="M223.251 80.672C221.107 80.672 219.155 80.304 217.395 79.568C215.667 78.832 214.291 77.76 213.267 76.352C212.275 74.944 211.779 73.264 211.779 71.312C211.779 70 212.003 68.864 212.451 67.904C212.899 66.912 213.507 66.048 214.275 65.312C215.043 64.576 215.907 63.936 216.867 63.392C217.827 62.848 218.819 62.384 219.843 62C219.235 61.392 218.579 60.688 217.875 59.888C217.203 59.088 216.643 58.192 216.195 57.2C215.747 56.208 215.523 55.104 215.523 53.888C215.523 52.576 215.731 51.424 216.147 50.432C216.595 49.408 217.219 48.544 218.019 47.84C218.819 47.136 219.763 46.608 220.851 46.256C221.939 45.904 223.123 45.728 224.403 45.728C226.547 45.728 228.291 46.368 229.635 47.648C230.979 48.896 231.651 50.512 231.651 52.496C231.651 53.808 231.379 54.992 230.835 56.048C230.323 57.104 229.603 58.048 228.675 58.88C227.747 59.712 226.659 60.448 225.411 61.088L233.379 69.392C233.955 66.768 234.579 64.624 235.251 62.96C235.923 61.296 236.627 60 237.363 59.072C238.131 58.144 238.915 57.504 239.715 57.152C240.547 56.8 241.379 56.624 242.211 56.624C243.235 56.624 244.099 56.928 244.803 57.536C245.539 58.112 245.907 58.912 245.907 59.936C245.907 60.448 245.811 60.928 245.619 61.376C245.427 61.824 245.155 62.192 244.803 62.48C244.483 62.736 244.067 62.864 243.555 62.864C243.043 62.864 242.611 62.72 242.259 62.432C241.907 62.144 241.603 61.712 241.347 61.136C241.091 60.56 240.803 59.872 240.483 59.072C239.939 59.168 239.299 59.616 238.563 60.416C237.859 61.184 237.155 62.4 236.451 64.064C235.779 65.728 235.203 67.952 234.723 70.736C236.131 72.176 237.283 73.312 238.179 74.144C239.107 74.976 239.891 75.568 240.531 75.92C241.171 76.24 241.811 76.4 242.451 76.4C243.027 76.4 243.587 76.272 244.131 76.016C244.675 75.728 245.331 75.248 246.099 74.576L246.675 75.488C246.131 76.352 245.523 77.12 244.851 77.792C244.211 78.464 243.523 78.992 242.787 79.376C242.051 79.76 241.251 79.952 240.387 79.952C239.587 79.952 238.819 79.792 238.083 79.472C237.347 79.12 236.579 78.608 235.779 77.936C234.979 77.232 234.067 76.368 233.043 75.344C232.531 76.24 231.827 77.104 230.931 77.936C230.067 78.736 228.995 79.392 227.715 79.904C226.467 80.416 224.979 80.672 223.251 80.672ZM224.259 78.896C226.019 78.896 227.539 78.448 228.819 77.552C230.131 76.624 231.123 75.488 231.795 74.144L220.851 63.104C219.955 63.616 219.187 64.24 218.547 64.976C217.939 65.712 217.475 66.576 217.155 67.568C216.835 68.528 216.675 69.632 216.675 70.88C216.675 72.448 216.979 73.84 217.587 75.056C218.227 76.272 219.107 77.216 220.227 77.888C221.379 78.56 222.723 78.896 224.259 78.896ZM224.307 60.08C225.619 59.408 226.675 58.672 227.475 57.872C228.275 57.04 228.851 56.176 229.203 55.28C229.587 54.384 229.779 53.504 229.779 52.64C229.779 51.008 229.267 49.728 228.243 48.8C227.251 47.84 226.019 47.36 224.547 47.36C222.819 47.36 221.523 47.824 220.659 48.752C219.827 49.68 219.411 50.832 219.411 52.208C219.411 53.136 219.619 54.032 220.035 54.896C220.451 55.728 221.027 56.56 221.763 57.392C222.499 58.224 223.347 59.12 224.307 60.08Z" fill="#75B8BA"/>
</svg>
