<?xml version="1.0" encoding="UTF-8"?>
<svg xmlns="http://www.w3.org/2000/svg" xmlns:xlink="http://www.w3.org/1999/xlink" viewBox="0 0 467.72 145.18">
    <title>logo-anhalt-hochschule</title>
  <defs>
    <style>.cls-1{fill:none;}.cls-2{clip-path:url(#clip-path);}.cls-3{fill:#e2001a;}.cls-4{fill:url(#Verlauf_unten);}.cls-5{fill:url(#Verlauf_oben);}</style>
    <clipPath id="clip-path" transform="translate(0)">
      <rect class="cls-1" width="467.72" height="145.18"/>
    </clipPath>
    <linearGradient id="Verlauf_unten" x1="9.44" y1="127.73" x2="75.23" y2="97.05" gradientUnits="userSpaceOnUse">
      <stop offset="0.5" stop-color="#e2001a"/>
      <stop offset="1" stop-color="#172983"/>
    </linearGradient>
    <linearGradient id="Verlauf_oben" x1="17.32" y1="14.74" x2="109.91" y2="57.92" xlink:href="#Verlauf_unten"/>
  </defs>
  <g id="logo-anhalt-hochschule" data-name="logo-anhalt-hochschule">
    <g id="Ebene_1-2" data-name="Ebene 1">
      <g class="cls-2">
        <path class="cls-3" d="M447,107.33,445.63,110a9.43,9.43,0,0,0,3.26,1.55,15.51,15.51,0,0,0,4.33.6,10.09,10.09,0,0,0,5.81-1.47,4.6,4.6,0,0,0,2.13-4,4.08,4.08,0,0,0-1-2.91,5.35,5.35,0,0,0-2.34-1.48,27.14,27.14,0,0,0-3.59-.81c-1.11-.21-2-.4-2.58-.56a3.84,3.84,0,0,1-1.54-.76,1.75,1.75,0,0,1-.63-1.42,2.09,2.09,0,0,1,1.11-1.84,6.18,6.18,0,0,1,3.23-.69,9.55,9.55,0,0,1,5.3,1.45L460.57,95a9.78,9.78,0,0,0-3-1.22,15.44,15.44,0,0,0-3.68-.45,9.34,9.34,0,0,0-5.58,1.51,4.71,4.71,0,0,0-2.08,4,4.23,4.23,0,0,0,1,3,5.59,5.59,0,0,0,2.41,1.53,24.72,24.72,0,0,0,3.63.8c1.08.18,1.92.35,2.51.5a3.74,3.74,0,0,1,1.47.71,1.59,1.59,0,0,1,.59,1.32c0,1.66-1.45,2.49-4.37,2.49a12.07,12.07,0,0,1-3.5-.52,9.83,9.83,0,0,1-2.95-1.38m-58.6-13.8h-3.19V111.9h3.33v-9.46a6.18,6.18,0,0,1,1.56-4.53,5.74,5.74,0,0,1,4.27-1.58,4.82,4.82,0,0,1,3.67,1.36,5.61,5.61,0,0,1,1.29,4V111.9h3.32V101.33c0-2.61-.68-4.6-2.06-6a7.59,7.59,0,0,0-5.56-2,9.54,9.54,0,0,0-3.91.77,6.4,6.4,0,0,0-2.72,2.18ZM366,101.43a5.82,5.82,0,0,1,1.89-3.81,6.19,6.19,0,0,1,8,0,5.93,5.93,0,0,1,1.89,3.79Zm-2.14-3.53a9.81,9.81,0,0,0-1.19,4.82,9.58,9.58,0,0,0,1.23,4.85,8.58,8.58,0,0,0,3.48,3.35,11,11,0,0,0,5.17,1.19,10.72,10.72,0,0,0,4.14-.76,8.06,8.06,0,0,0,3.11-2.22L377.94,107a6.82,6.82,0,0,1-5.31,2.22,7,7,0,0,1-4.52-1.47,5.82,5.82,0,0,1-2.13-3.91h14.91c0-.41.07-.75.07-1a10.22,10.22,0,0,0-1.16-4.92,8.4,8.4,0,0,0-3.23-3.35,9.18,9.18,0,0,0-4.7-1.2,9.34,9.34,0,0,0-4.73,1.2,8.57,8.57,0,0,0-3.3,3.35m-5.49-4.37H355V111.9h3.33Zm-3.28-7.23a2.08,2.08,0,0,0-.64,1.54,2.05,2.05,0,0,0,.64,1.53,2.25,2.25,0,0,0,1.61.62,2.19,2.19,0,0,0,2.26-2.22,2,2,0,0,0-.64-1.51,2.29,2.29,0,0,0-1.62-.61,2.19,2.19,0,0,0-1.61.65m-41.14,20.13-1.28,2.7a10.75,10.75,0,0,0,4,2.2,16.51,16.51,0,0,0,5.29.85,12.91,12.91,0,0,0,5.2-.92,7,7,0,0,0,3.16-2.49,6.26,6.26,0,0,0,1-3.49,5.29,5.29,0,0,0-1.2-3.64,7.45,7.45,0,0,0-2.86-2,34.09,34.09,0,0,0-4.4-1.32,30.48,30.48,0,0,1-3.35-.92,5.73,5.73,0,0,1-2.06-1.21,2.65,2.65,0,0,1-.84-2,3.27,3.27,0,0,1,1.48-2.77,7.44,7.44,0,0,1,4.42-1.08,12.39,12.39,0,0,1,3.4.5,12.78,12.78,0,0,1,3.26,1.48l1.14-2.78a11.25,11.25,0,0,0-3.57-1.59,16.38,16.38,0,0,0-4.23-.56,12.67,12.67,0,0,0-5.17.94,7,7,0,0,0-3.1,2.5,6.24,6.24,0,0,0-1,3.5A5.39,5.39,0,0,0,314.43,98a7.28,7.28,0,0,0,2.88,2,34.52,34.52,0,0,0,4.42,1.32c1.46.35,2.58.66,3.38.93a5.44,5.44,0,0,1,2,1.2,2.67,2.67,0,0,1,.82,2,3.16,3.16,0,0,1-1.49,2.72,8.07,8.07,0,0,1-4.51,1,13.09,13.09,0,0,1-4.46-.78,10.63,10.63,0,0,1-3.55-2m-50.39-5a5.91,5.91,0,0,1,1.89-3.81,5.77,5.77,0,0,1,4-1.46,5.67,5.67,0,0,1,4,1.48,5.84,5.84,0,0,1,1.89,3.79Zm-2.13-3.53a9.7,9.7,0,0,0-1.19,4.82,9.58,9.58,0,0,0,1.23,4.85,8.58,8.58,0,0,0,3.48,3.35,11,11,0,0,0,5.17,1.19,10.75,10.75,0,0,0,4.14-.76,8.13,8.13,0,0,0,3.11-2.22L275.51,107a6.82,6.82,0,0,1-5.31,2.22,7,7,0,0,1-4.52-1.47,5.79,5.79,0,0,1-2.14-3.91h14.92c0-.41.06-.75.06-1a10.1,10.1,0,0,0-1.16-4.92,8.38,8.38,0,0,0-3.22-3.35,9.18,9.18,0,0,0-4.7-1.2,9.32,9.32,0,0,0-4.73,1.2,8.57,8.57,0,0,0-3.3,3.35m14.86-25.31V53.76h7.42V48.31H262v5.45h7.46V72.59Zm-21,20.94h-3.33V111.9h3.33ZM252,86.3a2.09,2.09,0,0,0-.65,1.54,2.06,2.06,0,0,0,.65,1.53,2.22,2.22,0,0,0,1.61.62,2.19,2.19,0,0,0,2.25-2.22,2,2,0,0,0-.64-1.51,2.27,2.27,0,0,0-1.61-.61,2.16,2.16,0,0,0-1.61.65m.6-38h-6.86V72.59h18.45V67.14H252.55ZM245.2,86.18h-3.33V111.9h3.33Zm-23.33,16.54a6.8,6.8,0,0,1,.81-3.37,5.84,5.84,0,0,1,2.22-2.27,6.17,6.17,0,0,1,3.14-.81,6.32,6.32,0,0,1,3.17.79,5.77,5.77,0,0,1,2.22,2.27,7.48,7.48,0,0,1,0,6.77,5.8,5.8,0,0,1-2.22,2.28,6.52,6.52,0,0,1-6.33,0,5.67,5.67,0,0,1-2.22-2.28,7,7,0,0,1-.79-3.38m-.11-9.19h-3.19v25.1h3.33v-9.5a7.52,7.52,0,0,0,2.79,2.22,8.51,8.51,0,0,0,3.62.76,9.64,9.64,0,0,0,4.79-1.18,8.43,8.43,0,0,0,3.31-3.31,10.58,10.58,0,0,0,0-9.79,8.54,8.54,0,0,0-3.31-3.3,9.74,9.74,0,0,0-4.79-1.18,8.85,8.85,0,0,0-3.74.78,7.08,7.08,0,0,0-2.81,2.31ZM193.88,72.59V63.12h9.36v9.47h6.87V48.31h-6.87v9.12h-9.36V48.31H187V72.59ZM174.5,103.06l5.23-11.89L185,103.06ZM178,87.63,167,111.9h3.57l2.67-6.06h12.9l2.67,6.06h3.64l-11-24.27Zm-14.66-15V59.65l10.71,12.94h5.65V48.31H173V61.25L162.29,48.31h-5.65V72.59ZM150.54,93.53h-3.12v2.74h3.12V111.9h3.33V96.27h5.27V93.53H153.8v-1.6q0-3.23,3-3.22a4.16,4.16,0,0,1,2.56.86l1-2.53a5.13,5.13,0,0,0-1.66-.8,7.8,7.8,0,0,0-2.08-.27,6.08,6.08,0,0,0-4.48,1.59,5.89,5.89,0,0,0-1.59,4.34ZM130,102.72a6.94,6.94,0,0,1,.82-3.39,5.77,5.77,0,0,1,2.22-2.27,6.76,6.76,0,0,1,6.34,0,5.75,5.75,0,0,1,2.21,2.27,7.65,7.65,0,0,1,0,6.77,5.77,5.77,0,0,1-2.21,2.28,6.54,6.54,0,0,1-6.34,0,5.8,5.8,0,0,1-2.22-2.28,6.93,6.93,0,0,1-.82-3.38m-2.13-4.84a10.12,10.12,0,0,0,0,9.67,8.81,8.81,0,0,0,3.42,3.35,10.59,10.59,0,0,0,9.83,0,9,9,0,0,0,3.4-3.35,10.12,10.12,0,0,0,0-9.67,8.84,8.84,0,0,0-3.4-3.33,10.67,10.67,0,0,0-9.83,0,8.69,8.69,0,0,0-3.42,3.33M59.22,118.71A24.18,24.18,0,0,1,48.56,121a24.2,24.2,0,1,1,.28-48.39,24.19,24.19,0,0,1,10.38,46.12m59,13.3L96.79,86.06V48.39A48.38,48.38,0,0,0,20.16,9.1,1.52,1.52,0,0,0,19.67,11L28.92,30.8a1.51,1.51,0,0,0,2.52.34A24.2,24.2,0,0,1,72.6,48.39v6.48a48.38,48.38,0,1,0,15.45,69.68l8.29,17.79a1.41,1.41,0,0,0,2,.63L117.48,134a1.51,1.51,0,0,0,.73-2m25.67-98.74h6.87V9h-6.87v9.12h-9.36V9h-6.87V33.27h6.87V23.8h9.36Zm-2,29.54h-6.24L138.78,55Zm3.92,9.78H153L142.21,48.31h-6.76L124.74,72.59h7l1.91-4.72h10.26Zm29.61-51.46a7.41,7.41,0,0,1-.86,3.63,6.3,6.3,0,0,1-2.36,2.44,6.81,6.81,0,0,1-6.66,0,6.3,6.3,0,0,1-2.36-2.44,7.52,7.52,0,0,1-.86-3.63,7.48,7.48,0,0,1,.86-3.62,6.32,6.32,0,0,1,2.36-2.45,6.88,6.88,0,0,1,6.66,0,6.32,6.32,0,0,1,2.36,2.45,7.37,7.37,0,0,1,.86,3.62m5.19,6.49a12.21,12.21,0,0,0,1.75-6.49,12.15,12.15,0,0,0-6.57-11,15.5,15.5,0,0,0-13.84,0,12.15,12.15,0,0,0-6.57,11,12.12,12.12,0,0,0,6.57,11,15.5,15.5,0,0,0,13.84,0,12.23,12.23,0,0,0,4.82-4.5m13.63-2.86a7.51,7.51,0,0,1-.85-3.63,7.47,7.47,0,0,1,.85-3.62,6,6,0,0,1,2.39-2.45,7.33,7.33,0,0,1,9.24,2l4.37-3.95a11.59,11.59,0,0,0-4.44-3.4,14.64,14.64,0,0,0-6-1.18A14.46,14.46,0,0,0,193,10.12a12.13,12.13,0,0,0-4.77,4.49,12.46,12.46,0,0,0-1.73,6.52,12.44,12.44,0,0,0,1.73,6.52A12.06,12.06,0,0,0,193,32.14a14.34,14.34,0,0,0,6.85,1.61,14.8,14.8,0,0,0,6-1.17,11.59,11.59,0,0,0,4.44-3.4l-4.37-4a7.18,7.18,0,0,1-5.72,2.85,7,7,0,0,1-3.52-.87,6,6,0,0,1-2.39-2.44m17.39,78a6.93,6.93,0,0,1-.82,3.38,5.8,5.8,0,0,1-2.22,2.28,6.11,6.11,0,0,1-3.17.82,6.18,6.18,0,0,1-3.16-.82,5.8,5.8,0,0,1-2.22-2.28,7,7,0,0,1-.79-3.38,6.8,6.8,0,0,1,.81-3.37,5.84,5.84,0,0,1,2.22-2.27,6.17,6.17,0,0,1,3.14-.81,6.29,6.29,0,0,1,3.17.79,5.77,5.77,0,0,1,2.22,2.27,6.94,6.94,0,0,1,.82,3.39m2.16-4.89a8.47,8.47,0,0,0-3.31-3.3,9.7,9.7,0,0,0-4.78-1.18,8.86,8.86,0,0,0-3.75.78,7.08,7.08,0,0,0-2.81,2.31V93.53H196v25.1h3.33v-9.5a7.52,7.52,0,0,0,2.79,2.22,8.52,8.52,0,0,0,3.63.76,9.6,9.6,0,0,0,4.78-1.18,8.37,8.37,0,0,0,3.31-3.31,10.58,10.58,0,0,0,0-9.79m17.46-64.56h6.87V9h-6.87v9.12H221.9V9H215V33.27h6.87V23.8h9.36ZM231,62.81h-6.24L227.83,55Zm3.92,9.78H242L231.26,48.31H224.5L213.79,72.59h7l1.91-4.72H233Zm16-56.55a1.83,1.83,0,0,1,.94-1.58,5.57,5.57,0,0,1,3-.61,14.09,14.09,0,0,1,6.73,1.87l2.11-5.09a14.18,14.18,0,0,0-4.09-1.58,20.75,20.75,0,0,0-4.71-.54,15,15,0,0,0-5.92,1,8.14,8.14,0,0,0-3.62,2.83,6.94,6.94,0,0,0-1.21,4,5.83,5.83,0,0,0,1.32,4,7.54,7.54,0,0,0,3.15,2.17,35.87,35.87,0,0,0,4.58,1.27,21.38,21.38,0,0,1,3.62,1.05,1.65,1.65,0,0,1,1.13,1.55c0,1.32-1.32,2-4,2a14.76,14.76,0,0,1-4.24-.65A14.39,14.39,0,0,1,246,26l-2.26,5.06a14.2,14.2,0,0,0,4.51,2,22.7,22.7,0,0,0,5.72.72,14.86,14.86,0,0,0,5.9-1,8.36,8.36,0,0,0,3.64-2.83,6.82,6.82,0,0,0,1.21-3.95,5.81,5.81,0,0,0-1.33-4,8,8,0,0,0-3.16-2.15,33.16,33.16,0,0,0-4.6-1.26,19.74,19.74,0,0,1-3.57-1A1.56,1.56,0,0,1,250.92,16m36.83,1,4.37-3.95a11.59,11.59,0,0,0-4.44-3.4,14.64,14.64,0,0,0-6-1.18,14.46,14.46,0,0,0-6.85,1.61,12.13,12.13,0,0,0-4.77,4.49,12.46,12.46,0,0,0-1.73,6.52,12.44,12.44,0,0,0,1.73,6.52,12.06,12.06,0,0,0,4.77,4.49,14.34,14.34,0,0,0,6.85,1.61,14.8,14.8,0,0,0,6-1.17,11.59,11.59,0,0,0,4.44-3.4l-4.37-4A7.18,7.18,0,0,1,282,28.07a7,7,0,0,1-3.52-.87,6,6,0,0,1-2.39-2.44,7.51,7.51,0,0,1-.85-3.63,7.47,7.47,0,0,1,.85-3.62,6,6,0,0,1,2.39-2.45,7.33,7.33,0,0,1,9.24,2m9,82.29a7.56,7.56,0,0,1,0,6.77,5.67,5.67,0,0,1-2.22,2.28,6.52,6.52,0,0,1-6.33,0A5.94,5.94,0,0,1,286,106.1a7.48,7.48,0,0,1,0-6.77,5.91,5.91,0,0,1,2.22-2.27,6.73,6.73,0,0,1,6.33,0,5.64,5.64,0,0,1,2.22,2.27m-2-5.23a8.75,8.75,0,0,0-3.64-.75,9.74,9.74,0,0,0-4.79,1.18,8.54,8.54,0,0,0-3.31,3.3,10.58,10.58,0,0,0,0,9.79,8.43,8.43,0,0,0,3.31,3.31,9.64,9.64,0,0,0,4.79,1.18,8.57,8.57,0,0,0,3.74-.8,7.19,7.19,0,0,0,2.81-2.32v2.91h3.19V86.18h-3.33V96.3a7.09,7.09,0,0,0-2.77-2.2m4-45.79h-3.47v13.8q0,5.2,2.7,8a10.09,10.09,0,0,0,7.56,2.77c3.24,0,5.76-.91,7.56-2.75s2.71-4.5,2.71-8V48.31H312.4V62c0,2.63-.58,4.59-1.76,5.87a6.56,6.56,0,0,1-5.1,1.93q-6.84,0-6.83-7.8Zm13.73-15h6.86V9h-6.86v9.12h-9.36V9h-6.87V33.27h6.87V23.8h9.36Zm14.3,21.53A6.55,6.55,0,0,0,324,57V54.21h-3.19V72.59h3.33V63.12a6.16,6.16,0,0,1,1.56-4.52A5.69,5.69,0,0,1,330,57a4.84,4.84,0,0,1,3.68,1.35,5.61,5.61,0,0,1,1.28,4v10.2h3.33V62a8,8,0,0,0-2.06-5.95,7.61,7.61,0,0,0-5.57-2,9.52,9.52,0,0,0-3.9.76m19.46-24c2-2,3-4.75,3-8.36V9h-6.77V22.24q0,5.84-4.57,5.83t-4.62-5.83V9h-6.86V22.45c0,3.61,1,6.39,3,8.36s4.8,2.94,8.41,2.94,6.41-1,8.41-2.94M343,48.52a2.05,2.05,0,0,0,.64,1.53,2.23,2.23,0,0,0,1.61.62,2.2,2.2,0,0,0,2.26-2.22,2,2,0,0,0-.65-1.51,2.25,2.25,0,0,0-1.61-.6,2.17,2.17,0,0,0-1.61.64,2.09,2.09,0,0,0-.64,1.54m3.92,5.69h-3.33V72.59h3.33Zm4.16,43.06a7.17,7.17,0,0,0-3-2.91,9.6,9.6,0,0,0-4.45-1,10.25,10.25,0,0,0-5,1.2,8.77,8.77,0,0,0-3.45,3.33,10,10,0,0,0,0,9.67,8.89,8.89,0,0,0,3.45,3.35,10.15,10.15,0,0,0,5,1.21,9.48,9.48,0,0,0,4.45-1,7.28,7.28,0,0,0,3-2.93l-2.53-1.6a5.67,5.67,0,0,1-2.16,2,6.09,6.09,0,0,1-2.84.66,6.59,6.59,0,0,1-3.24-.8,5.65,5.65,0,0,1-2.25-2.27,7.46,7.46,0,0,1,0-6.8,5.71,5.71,0,0,1,2.25-2.27,6.59,6.59,0,0,1,3.24-.79,6.21,6.21,0,0,1,2.84.65,5.67,5.67,0,0,1,2.16,2ZM360.33,69,354,54.21h-3.46l8,18.38H362L370,54.21h-3.26Zm-4.75-35.68H374V27.82H362.44V9h-6.86Zm21.1,25a6.19,6.19,0,0,1,8,0,6,6,0,0,1,1.89,3.79H374.79a5.82,5.82,0,0,1,1.89-3.81m4-4.26A9.34,9.34,0,0,0,376,55.23a8.57,8.57,0,0,0-3.3,3.35,9.81,9.81,0,0,0-1.19,4.82,9.58,9.58,0,0,0,1.23,4.85,8.51,8.51,0,0,0,3.48,3.35,10.83,10.83,0,0,0,5.17,1.19,10.72,10.72,0,0,0,4.14-.76,8.13,8.13,0,0,0,3.11-2.22l-1.84-2.15a6.82,6.82,0,0,1-5.31,2.22,7,7,0,0,1-4.52-1.47,5.7,5.7,0,0,1-2.13-3.9H389.7c0-.42.07-.75.07-1a10.11,10.11,0,0,0-1.17-4.92,8.38,8.38,0,0,0-3.22-3.35,9.18,9.18,0,0,0-4.7-1.19m-2.22-20.77H398V28H385.26V23.53H396V18.39H385.26V14.3H397.5V9h-19Zm24.86,24a7.64,7.64,0,0,1,.77,0V54a9.25,9.25,0,0,0-4.13.83,5.69,5.69,0,0,0-2.57,2.42V54.21H394.2V72.59h3.33V63.43a6.36,6.36,0,0,1,1.55-4.59,5.55,5.55,0,0,1,4.24-1.61m7,3.6a1.75,1.75,0,0,1-.63-1.42,2.1,2.1,0,0,1,1.11-1.84,6.18,6.18,0,0,1,3.23-.69,9.47,9.47,0,0,1,5.3,1.46l1.43-2.64a10,10,0,0,0-3-1.21,15.44,15.44,0,0,0-3.68-.45,9.36,9.36,0,0,0-5.58,1.5,4.71,4.71,0,0,0-2.08,4,4.23,4.23,0,0,0,1,3,5.61,5.61,0,0,0,2.41,1.52,24.26,24.26,0,0,0,3.62.8c1.09.18,1.92.35,2.51.5a3.85,3.85,0,0,1,1.48.71,1.63,1.63,0,0,1,.59,1.32c0,1.66-1.46,2.5-4.37,2.5a12.31,12.31,0,0,1-3.5-.52,10,10,0,0,1-3-1.39l-1.39,2.64a9.71,9.71,0,0,0,3.26,1.54,15.56,15.56,0,0,0,4.33.6,10.09,10.09,0,0,0,5.81-1.47,4.59,4.59,0,0,0,2.14-4,4.08,4.08,0,0,0-1-2.91A5.24,5.24,0,0,0,418,63a28.84,28.84,0,0,0-3.59-.81c-1.1-.21-2-.39-2.58-.56a3.84,3.84,0,0,1-1.54-.76m.05,45.3a7.46,7.46,0,0,1,0-6.8,5.71,5.71,0,0,1,2.25-2.27,6.6,6.6,0,0,1,3.25-.79,6.24,6.24,0,0,1,2.84.65,5.71,5.71,0,0,1,2.15,2l2.53-1.63a7.21,7.21,0,0,0-3-2.91,9.67,9.67,0,0,0-4.46-1,10.31,10.31,0,0,0-5,1.2,8.77,8.77,0,0,0-3.45,3.33,10,10,0,0,0,0,9.67,8.89,8.89,0,0,0,3.45,3.35,10.2,10.2,0,0,0,5,1.21,9.55,9.55,0,0,0,4.46-1,7.31,7.31,0,0,0,3-2.93l-2.53-1.6a5.71,5.71,0,0,1-2.15,2,6.12,6.12,0,0,1-2.84.66,6.6,6.6,0,0,1-3.25-.8,5.65,5.65,0,0,1-2.25-2.27m18.33-4.7a5.82,5.82,0,0,1,1.89-3.81,6.19,6.19,0,0,1,8,0,5.93,5.93,0,0,1,1.89,3.79Zm-2.14-3.53a9.81,9.81,0,0,0-1.19,4.82,9.58,9.58,0,0,0,1.23,4.85,8.58,8.58,0,0,0,3.48,3.35,11,11,0,0,0,5.17,1.19,10.72,10.72,0,0,0,4.14-.76,8.13,8.13,0,0,0,3.11-2.22L440.67,107a6.82,6.82,0,0,1-5.31,2.22,7,7,0,0,1-4.52-1.47,5.74,5.74,0,0,1-2.13-3.91h14.91c0-.41.07-.75.07-1a10.11,10.11,0,0,0-1.17-4.92,8.38,8.38,0,0,0-3.22-3.35,9.18,9.18,0,0,0-4.7-1.2,9.34,9.34,0,0,0-4.73,1.2,8.57,8.57,0,0,0-3.3,3.35M426,72.59h3.33V54.21H426ZM429.31,50a2.13,2.13,0,0,0,.64-1.58,2,2,0,0,0-.64-1.51,2.25,2.25,0,0,0-1.61-.6,2.17,2.17,0,0,0-1.61.64,2.09,2.09,0,0,0-.64,1.54,2.05,2.05,0,0,0,.64,1.53,2.23,2.23,0,0,0,1.61.62,2.15,2.15,0,0,0,1.61-.64m15.45,22.44a4.84,4.84,0,0,0,1.8-1l-1-2.39a4,4,0,0,1-2.6.87,2.79,2.79,0,0,1-2.13-.8,3.22,3.22,0,0,1-.74-2.29V57h5.27V54.21h-5.27v-4h-3.33v4H433.6V57h3.12V67a5.66,5.66,0,0,0,1.52,4.26,5.87,5.87,0,0,0,4.3,1.49,7.84,7.84,0,0,0,2.22-.32m23-18.26h-3.26l-6.35,14.7-6.41-14.7h-3.47l8.11,18.34-.59,1.29a5.52,5.52,0,0,1-1.47,2.2,3.22,3.22,0,0,1-2,.64A4.61,4.61,0,0,1,449,75.33l-1.43,2.49a5.41,5.41,0,0,0,2.1,1.27,8,8,0,0,0,2.62.43,6.31,6.31,0,0,0,3.8-1.14,9.19,9.19,0,0,0,2.76-4Z" transform="translate(0)"/>
      </g>
      <path class="cls-4" d="M72.58,91.37a24.21,24.21,0,0,1-24,29.61A24.19,24.19,0,0,1,24.82,91.37H.31a48.42,48.42,0,0,0,48.07,53.81h.12a48.49,48.49,0,0,0,39.55-20.63Z" transform="translate(0)"/>
      <path class="cls-5" d="M48.4,0A48.12,48.12,0,0,0,20.16,9.1a1.53,1.53,0,0,0-.63,1.21v0a1.47,1.47,0,0,0,.14.61L28.92,30.8a1.51,1.51,0,0,0,2.52.34,24.06,24.06,0,0,1,17-6.94h0A24.19,24.19,0,0,1,72.6,48.39v6.48A48.17,48.17,0,0,1,92.26,76.33l4.53,9.73V48.39A48.39,48.39,0,0,0,48.4,0Z" transform="translate(0)"/>
    </g>
  </g>
</svg>